<svg version="1.1" viewBox="0 0 96 96" xmlns="http://www.w3.org/2000/svg" xmlns:xlink="http://www.w3.org/1999/xlink" id="Icons_Refresh_LTR" overflow="hidden"><style>
.MsftOfcThm_Background1_Fill {
 fill:#FFFFFF; 
}
</style>
<path d=" M 80 34 L 80 13 L 73.3 19.7 C 66.6 13.7 57.7 10 48 10 C 27 10 10 27 10 48 C 10 69 27 86 48 86 C 58.5 86 68 81.7 74.9 74.9 L 66.4 66.4 C 61.7 71.1 55.2 74 48 74 C 33.7 74 22 62.3 22 48 C 22 33.7 33.7 22 48 22 C 54.4 22 60.3 24.3 64.8 28.2 L 59 34 L 80 34 Z" class="MsftOfcThm_Background1_Fill" stroke="none" stroke-width="1" stroke-dasharray="" stroke-dashoffset="1" fill="#FFFFFF" fill-opacity="1"/></svg>