<svg version="1.1" viewBox="0 0 96 96" xmlns="http://www.w3.org/2000/svg" xmlns:xlink="http://www.w3.org/1999/xlink" id="Icons_RemoteControl" overflow="hidden"><path d=" M 58 26 C 56.3 26 55 24.7 55 23 C 55 21.3 56.3 20 58 20 C 59.7 20 61 21.3 61 23 C 61 24.7 59.7 26 58 26 Z M 58 36 C 56.3 36 55 34.7 55 33 C 55 31.3 56.3 30 58 30 C 59.7 30 61 31.3 61 33 C 61 34.7 59.7 36 58 36 Z M 58 46 C 56.3 46 55 44.7 55 43 C 55 41.3 56.3 40 58 40 C 59.7 40 61 41.3 61 43 C 61 44.7 59.7 46 58 46 Z M 59.1 68.4 L 54.7 70.6 C 54.4 70.8 54 70.5 54 70.2 L 54 65.8 C 54 65.4 54.4 65.2 54.7 65.4 L 59.1 67.6 C 59.5 67.7 59.5 68.3 59.1 68.4 Z M 48 26 C 46.3 26 45 24.7 45 23 C 45 21.3 46.3 20 48 20 C 49.7 20 51 21.3 51 23 C 51 24.7 49.7 26 48 26 Z M 48 36 C 46.3 36 45 34.7 45 33 C 45 31.3 46.3 30 48 30 C 49.7 30 51 31.3 51 33 C 51 34.7 49.7 36 48 36 Z M 48 46 C 46.3 46 45 44.7 45 43 C 45 41.3 46.3 40 48 40 C 49.7 40 51 41.3 51 43 C 51 44.7 49.7 46 48 46 Z M 45.4 61.3 L 47.6 56.9 C 47.8 56.5 48.3 56.5 48.5 56.9 L 50.7 61.3 C 50.9 61.6 50.6 62 50.3 62 L 45.9 62 C 45.4 62 45.2 61.6 45.4 61.3 Z M 48 71 C 46.3 71 45 69.7 45 68 C 45 66.3 46.3 65 48 65 C 49.7 65 51 66.3 51 68 C 51 69.7 49.7 71 48 71 Z M 50.6 74.7 L 48.4 79.1 C 48.2 79.5 47.7 79.5 47.5 79.1 L 45.3 74.7 C 45.1 74.4 45.4 74 45.7 74 L 50.1 74 C 50.6 74 50.8 74.4 50.6 74.7 Z M 42 70.2 C 42 70.6 41.6 70.8 41.3 70.6 L 36.9 68.4 C 36.5 68.2 36.5 67.7 36.9 67.5 L 41.3 65.3 C 41.6 65.1 42 65.4 42 65.7 L 42 70.2 Z M 35 43 C 35 41.3 36.3 40 38 40 C 39.7 40 41 41.3 41 43 C 41 44.7 39.7 46 38 46 C 36.3 46 35 44.7 35 43 Z M 38 30 C 39.7 30 41 31.3 41 33 C 41 34.7 39.7 36 38 36 C 36.3 36 35 34.7 35 33 C 35 31.3 36.3 30 38 30 Z M 38 20 C 39.7 20 41 21.3 41 23 C 41 24.7 39.7 26 38 26 C 36.3 26 35 24.7 35 23 C 35 21.3 36.3 20 38 20 Z M 63 4 L 33 4 C 30.8 4 29 5.8 29 8 L 29 88 C 29 90.2 30.8 92 33 92 L 63 92 C 65.2 92 67 90.2 67 88 L 67 8 C 67 5.8 65.2 4 63 4 Z"/></svg>